<?xml version="1.0" encoding="UTF-8" standalone="no"?>
<!-- Created with Inkscape (http://www.inkscape.org/) -->

<svg
   version="1.1"
   id="svg2"
   width="2829.3333"
   height="2829.3333"
   viewBox="0 0 2829.3333 2829.3333"
   sodipodi:docname="1111.ai"
   xmlns:inkscape="http://www.inkscape.org/namespaces/inkscape"
   xmlns:sodipodi="http://sodipodi.sourceforge.net/DTD/sodipodi-0.dtd"
   xmlns="http://www.w3.org/2000/svg"
   xmlns:svg="http://www.w3.org/2000/svg">
  <defs
     id="defs6">
    <clipPath
       clipPathUnits="userSpaceOnUse"
       id="clipPath16">
      <path
         d="M 0,2122 H 2122 V 0 H 0 Z"
         id="path14" />
    </clipPath>
  </defs>
  <sodipodi:namedview
     id="namedview4"
     pagecolor="#ffffff"
     bordercolor="#000000"
     borderopacity="0.25"
     inkscape:showpageshadow="2"
     inkscape:pageopacity="0.0"
     inkscape:pagecheckerboard="0"
     inkscape:deskcolor="#d1d1d1" />
  <g
     id="g8"
     inkscape:groupmode="layer"
     inkscape:label="1111"
     transform="matrix(1.3333333,0,0,-1.3333333,0,2829.3333)">
    <g
       id="g10">
      <g
         id="g12"
         clip-path="url(#clipPath16)">
        <g
           id="g18"
           transform="translate(1810.9039,1100.6865)">
          <path
             d="m 0,0 c -141.018,273.283 -383.355,492.798 -669.209,606.188 -66.563,26.403 -135.404,47.015 -205.467,61.788 -184.39,38.88 -377.284,37.383 -560.958,-4.865 -23.871,-5.491 -47.584,-11.669 -71.097,-18.536 -14.186,-4.144 -52.774,-9.124 -62.382,-20.266 -17.847,-20.694 2.233,-81.602 10.896,-103.778 26.548,-67.955 86.096,-124.378 158.3,-139.861 33.579,-7.2 72.53,-8.445 94.646,-34.718 21.563,-25.615 17.085,-63.595 27.298,-95.482 14.455,-45.134 58.734,-75.555 104.8,-86.688 46.066,-11.132 94.301,-6.27 141.436,-1.344 -28.934,-33.982 -3.908,-89.844 35.039,-111.641 38.947,-21.797 85.823,-21.751 129.722,-29.803 117.758,-21.599 221.083,-109.351 261.462,-222.058 19.1,-53.31 22.026,-119.687 -17.848,-159.896 -41.875,-42.226 -110.509,-37.349 -169.069,-26.994 -129.713,22.939 -257.38,58.112 -388.072,74.023 -5.395,0.657 -10.795,1.28 -16.2,1.87 -136.356,14.856 -279.821,5.817 -401.271,-57.93 415.141,-101.535 785.356,-374.214 1211.782,-402.719 100.762,-6.735 206.511,1.837 293.734,52.736 115.495,67.398 181.097,202.091 189.009,335.579 C 104.462,-250.907 61.32,-118.834 0,0"
             style="fill:#65b8e8;fill-opacity:1;fill-rule:nonzero;stroke:none"
             id="path20" />
        </g>
        <g
           id="g22"
           transform="translate(1810.9144,1100.6481)">
          <path
             d="m 0,0 c -141.04,273.3 -383.357,492.817 -669.229,606.217 -66.553,26.392 -135.402,46.997 -205.448,61.764 -184.395,38.915 -377.271,37.418 -560.967,-4.839 -23.847,-5.488 -47.595,-11.674 -71.093,-18.559 -14.169,-4.141 -52.784,-9.13 -62.363,-20.256 -17.861,-20.704 2.195,-81.57 10.876,-103.771 26.542,-67.951 86.111,-124.376 158.302,-139.843 3.343,-0.698 6.785,-1.396 10.227,-2.045 0.849,-0.15 1.697,-0.249 2.545,-0.45 2.145,-0.299 4.241,-0.698 6.336,-1.097 l 0.199,-0.049 c 28.288,-4.94 57.374,-9.78 75.335,-31.082 21.552,-25.644 17.062,-63.61 27.29,-95.49 14.468,-45.151 58.721,-75.585 104.819,-86.71 23.399,-5.638 47.346,-7.184 71.493,-6.635 17.694,0.241 28.883,1.151 46.394,2.948 l 5.542,0.494 c 6.037,0.599 12.023,1.247 18.01,1.846 -28.936,-33.975 -3.941,-89.803 35.023,-111.605 38.965,-21.802 85.812,-21.751 129.715,-29.834 6.436,-1.197 12.822,-2.545 19.158,-4.141 41.459,17.612 82.169,37.468 125.724,49.142 48.144,12.922 110.607,16.264 154.859,-10.577 45.251,-27.489 57.175,-90.45 83.417,-132.907 26.042,-42.157 80.473,-22.85 123.229,-24.396 60.666,-2.146 120.984,-16.016 156.306,-69.947 20.006,-30.433 30.234,-66.105 28.338,-102.375 -1.846,-36.02 -20.056,-82.219 -1.447,-115.945 22.551,-40.86 78.078,-56.077 105.668,-94.143 30.233,-41.758 23.897,-100.928 -15.716,-134.454 -37.368,-31.631 -91.399,-41.01 -140.391,-43.205 -12.772,-60.018 -56.825,-103.872 -114.299,-112.603 87.009,-1.496 175.115,11.076 249.701,54.581 115.496,67.401 181.102,202.105 188.985,335.612 C 104.47,-250.898 61.315,-118.789 0,0"
             style="fill:#e1f2fc;fill-opacity:1;fill-rule:nonzero;stroke:none"
             id="path24" />
        </g>
        <g
           id="g26"
           transform="translate(1810.9039,1100.6865)">
          <path
             d="m 0,0 c -79.081,153.254 -190.028,289.595 -322.641,399.797 -28.22,23.451 -57.419,45.72 -87.504,66.714 -80.64,56.276 -167.626,103.406 -259.064,139.677 -61.557,24.418 -125.064,43.878 -189.683,58.352 -5.254,1.177 -10.515,2.325 -15.784,3.436 -160.26,33.792 -326.942,37.082 -488.412,9.627 -5.838,-3.301 -11.448,-6.953 -16.726,-11.034 -27.365,-21.165 -45.156,-54.742 -45.562,-89.471 -0.422,-36.014 17.227,-69.814 39.571,-96.994 11.164,-13.579 23.722,-27.222 38.522,-36.889 13.719,-8.962 29.308,-14.461 43.59,-22.396 14.634,-8.131 26.762,-19.977 28.469,-37.543 1.827,-18.788 -5.973,-37.196 -5.619,-56.021 0.315,-16.818 7.731,-33.901 15.505,-48.591 5.837,-11.03 13.588,-21.141 24.012,-28.162 18.097,-12.188 40.974,-11.131 61.802,-9.93 30.382,1.751 60.779,3.419 90.75,-3.338 7.985,-1.799 18.023,-5.382 23.197,-9.373 6.565,-5.063 9.422,-9.549 13.485,-17.067 11.894,-22.012 20.492,-45.533 32.965,-67.327 16.277,-28.441 38.682,-55.201 69.406,-68.469 55.786,-24.089 117.889,-0.858 172.165,16.249 61.034,19.238 127.617,35.483 189.866,10.748 59.423,-23.611 90.883,-82.297 137.214,-122.809 17.285,-15.113 36.824,-25.229 59.062,-30.91 31.721,-8.104 64.914,-9.939 97.194,-15 30.876,-4.842 61.923,-11.39 88.99,-27.738 32.377,-19.555 57.881,-51.433 63.381,-89.411 5.408,-37.345 -5.301,-74.441 -5.444,-111.751 -0.134,-35.087 11.503,-67.249 35.627,-92.849 16.622,-17.639 37.77,-29.546 58.18,-42.158 18.258,-11.283 35.827,-24.506 43.909,-45.174 12.576,-32.16 6.146,-69.111 -6.197,-100.298 -7.331,-18.522 -17.361,-36.02 -29.82,-51.565 -11.116,-13.871 -29.787,-24.363 -46.912,-28.796 -12.728,-3.294 -25.94,-3.159 -38.947,-4.417 -15.52,-1.502 -30.518,-5.046 -44.596,-11.88 -23.653,-11.484 -39.429,-31.283 -52.125,-53.694 -8.919,-15.746 -17.268,-31.94 -29.981,-44.619 58.403,6.328 115.16,21.609 165.697,51.1 74.405,43.42 128.101,114.77 159.007,195.733 17.068,44.711 27.187,92.354 30.002,139.846 C 104.462,-250.907 61.32,-118.834 0,0"
             style="fill:#acddf1;fill-opacity:1;fill-rule:nonzero;stroke:none"
             id="path28" />
        </g>
        <g
           id="g30"
           transform="translate(1810.9039,1100.6865)">
          <path
             d="m 0,0 c -79.081,153.253 -190.028,289.595 -322.641,399.797 -73.952,47.187 -150.485,90.372 -228.628,129.782 -75.819,38.239 -153.59,72.243 -233.51,101.005 -82.349,29.636 -168.454,54.169 -256.332,58.298 -42.994,2.02 -86.16,-1.018 -128.099,-10.927 -30.331,-7.167 -63.688,-17.713 -87.076,-39.362 -17.837,-16.512 -24.825,-37.772 -16.015,-60.963 12.031,-31.669 42.058,-53.309 67.547,-73.599 23.837,-18.974 43.442,-39.856 48.656,-70.973 2.722,-16.241 2.169,-32.492 -0.431,-48.704 -2.166,-13.514 -6,-27.074 -6.118,-40.829 -0.281,-32.521 34.818,-49.687 63.875,-49.067 36.088,0.769 69.231,19.328 104.472,25.218 30.109,5.033 64.563,-0.541 84.261,-26.005 15.35,-19.843 16.738,-46.231 29.432,-67.423 36.092,-60.251 126.039,-30.372 177.998,-13.701 31.855,10.221 63.337,21.438 96.459,26.917 25.08,4.15 53.621,5.732 76.163,-8.241 19.259,-11.937 30.701,-31.791 41.091,-51.272 14.194,-26.614 27.49,-55.436 50.151,-76.039 50.621,-46.023 124.201,-19.225 185.097,-24.93 31.411,-2.943 61.369,-13.811 82.713,-37.913 19.441,-21.954 30.241,-49.279 41.633,-75.894 5.5,-12.85 11.247,-25.628 18.399,-37.661 7.978,-13.423 18.155,-24.964 28.66,-36.449 22.082,-24.142 46.112,-48.428 50.694,-82.338 2.286,-16.926 0.02,-35.516 -7.065,-51.105 -4.681,-10.298 -13.071,-18.23 -18.912,-27.182 -7.149,-10.96 -0.456,-25.465 5.415,-35.872 7.341,-13.016 20.67,-21.527 32.38,-30.237 12.26,-9.12 24.714,-19.158 31.754,-33.07 3.566,-7.046 5.642,-13.305 3.458,-21.118 -1.98,-7.082 -6.444,-12.201 -3.428,-19.369 7.181,-17.063 21.27,-28.098 31.657,-43.016 11.229,-16.129 17.893,-36.635 21.083,-55.871 0.891,-5.369 1.469,-10.751 1.756,-16.128 17.068,44.711 27.187,92.354 30.002,139.846 C 104.462,-250.907 61.32,-118.834 0,0"
             style="fill:#9ad5e9;fill-opacity:1;fill-rule:nonzero;stroke:none"
             id="path32" />
        </g>
        <g
           id="g34"
           transform="translate(1739.1736,616.3654)">
          <path
             d="m 0,0 c -27.584,38.102 -83.101,53.287 -105.669,94.176 -18.599,33.714 -0.418,79.896 1.462,115.909 1.881,36.29 -8.358,71.955 -28.35,102.395 -35.316,53.914 -95.638,67.776 -156.31,69.935 -42.768,1.532 -97.17,-17.763 -123.222,24.38 -26.261,42.49 -38.172,105.46 -83.449,132.905 -44.232,26.887 -106.714,23.544 -154.847,10.588 -43.533,-11.669 -84.176,-31.482 -125.62,-49.118 13.573,-3.361 26.912,-7.596 39.939,-12.64 0.679,0.44 1.36,0.876 2.043,1.308 55.073,-21.4 103.972,-58.35 141.191,-104.337 25.408,-30.349 45.68,-64.928 59.049,-102.244 2.274,-6.348 4.318,-12.881 6.089,-19.533 1.249,-4.33 2.382,-8.676 3.381,-13.028 3.721,2.62 7.129,4.957 10.026,6.643 32.081,18.668 69.081,39.181 106.839,41.976 40.483,2.998 67.512,-23.077 68.319,-63.444 0.774,-38.783 -66.464,-145.254 14.388,-130.554 31.33,5.695 68.912,28.668 100.922,14.921 37.496,-16.104 30.754,-68.5 23.995,-100.447 -20.864,-98.625 -82.819,-193.875 -187.916,-211.626 -49.064,-8.286 -95.61,1.714 -135.645,31.306 -31.978,23.636 -85.925,91.348 -130.155,62.339 -31.227,-20.48 -45.675,-57.721 -87.895,-60.243 -41.252,-2.463 -78.897,30.782 -108.42,55.365 -39.448,32.845 -81.751,62.857 -131.793,77.44 -50.912,14.838 -98.534,-0.825 -148.477,0.17 12.086,-5.176 24.157,-10.389 36.219,-15.624 139.669,-60.252 278.242,-123.337 420.162,-171.028 29.9,-10.047 59.95,-19.412 90.189,-27.922 38.736,-10.903 77.784,-20.404 117.231,-28.145 11.756,-2.307 23.548,-4.457 35.377,-6.442 9.697,5.801 19.425,11.189 30.7,11.108 23.613,-0.209 47.436,-17.902 70.074,-23.544 l 1.047,-0.255 c 4.88,-0.391 9.769,-0.751 14.664,-1.078 14.658,-0.98 29.421,-1.635 44.217,-1.884 57.376,8.826 101.388,52.645 114.144,112.647 48.969,2.159 103.022,11.564 140.359,43.188 C 23.892,-100.933 30.23,-41.725 0,0"
             style="fill:#4093cf;fill-opacity:1;fill-rule:nonzero;stroke:none"
             id="path36" />
        </g>
        <g
           id="g38"
           transform="translate(1226.9922,560.2702)">
          <path
             d="M 0,0 C 60.285,7.081 124.813,42.525 142.962,103.761 97.915,33.295 16.709,12.217 -61.112,-0.325 -40.911,-2.89 -20.357,-2.676 0,0"
             style="fill:#4093cf;fill-opacity:1;fill-rule:nonzero;stroke:none"
             id="path40" />
        </g>
        <g
           id="g42"
           transform="translate(1255.6542,774.7656)">
          <path
             d="m 0,0 c -13.418,-33.808 -39.443,-57.343 -69.846,-75.711 -10.043,-6.324 -20.587,-12.104 -31.252,-18.77 C -52.293,-91.775 3.625,-53.52 0,0"
             style="fill:#4093cf;fill-opacity:1;fill-rule:nonzero;stroke:none"
             id="path44" />
        </g>
        <g
           id="g46"
           transform="translate(1261.4705,929.6286)">
          <path
             d="m 0,0 c -0.726,-0.146 -0.887,-1.096 -0.298,-1.51 l 0.348,-0.2 0.563,0.113 0.244,0.318 C 1.241,-0.67 0.727,0.146 0,0"
             style="fill:#93d5f7;fill-opacity:1;fill-rule:nonzero;stroke:none"
             id="path48" />
        </g>
        <g
           id="g50"
           transform="translate(1283.7994,1007.5339)">
          <path
             d="M 0,0 C -0.726,-0.146 -0.887,-1.097 -0.298,-1.511 L 0.05,-1.71 0.613,-1.597 0.856,-1.279 C 1.241,-0.67 0.726,0.145 0,0"
             style="fill:#93d5f7;fill-opacity:1;fill-rule:nonzero;stroke:none"
             id="path52" />
        </g>
        <g
           id="g54"
           transform="translate(1276.2874,1020.7164)">
          <path
             d="m 0,0 c -2.005,-0.455 -2.24,-4.479 -0.492,-6.38 l 1.021,-0.932 c 0.488,-0.362 1.233,-0.193 1.555,0.354 0.243,0.417 0.434,0.827 0.613,1.303 C 3.635,-3.143 2.005,0.456 0,0"
             style="fill:#93d5f7;fill-opacity:1;fill-rule:nonzero;stroke:none"
             id="path56" />
        </g>
        <g
           id="g58"
           transform="translate(1222.3948,1077.7136)">
          <path
             d="m 0,0 c -0.545,0.085 -0.963,-0.523 -0.641,-0.991 0.323,-0.467 1.041,-0.292 1.154,0.248 l 0.035,0.305 -0.25,0.363 z"
             style="fill:#93d5f7;fill-opacity:1;fill-rule:nonzero;stroke:none"
             id="path60" />
        </g>
        <g
           id="g62"
           transform="translate(1206.7527,951.748)">
          <path
             d="m 0,0 c -1.5,-2.727 -0.267,-7.055 1.856,-7.001 l 1.178,0.214 c 0.532,0.185 1.09,1.198 1.163,2.115 0.054,0.696 0.067,1.325 0.045,2.008 C 4.129,0.935 1.501,2.727 0,0"
             style="fill:#93d5f7;fill-opacity:1;fill-rule:nonzero;stroke:none"
             id="path64" />
        </g>
        <g
           id="g66"
           transform="translate(1427.0627,864.7847)">
          <path
             d="m 0,0 c -1.919,-2.063 -0.304,-5.356 2.434,-5.326 0.52,0.005 0.995,0.052 1.517,0.155 0.686,0.137 1.399,0.903 1.489,1.599 0.065,0.529 0.078,1.006 0.047,1.525 C 5.32,0.686 1.92,2.063 0,0"
             style="fill:#93d5f7;fill-opacity:1;fill-rule:nonzero;stroke:none"
             id="path68" />
        </g>
        <g
           id="g70"
           transform="translate(1438.9258,770.3688)">
          <path
             d="m 0,0 c -1.92,-2.063 -0.305,-5.356 2.434,-5.326 0.519,0.005 0.994,0.052 1.517,0.155 0.686,0.137 1.398,0.903 1.489,1.599 0.064,0.529 0.077,1.006 0.046,1.525 C 5.319,0.686 1.92,2.063 0,0"
             style="fill:#93d5f7;fill-opacity:1;fill-rule:nonzero;stroke:none"
             id="path72" />
        </g>
        <g
           id="g74"
           transform="translate(1217.1523,1087.3613)">
          <path
             d="m 0,0 -0.604,-0.742 0.049,-1.369 0.656,-0.697 C 1.387,-3.946 3.505,-3.049 3.442,-1.283 3.379,0.484 1.201,1.228 0,0"
             style="fill:#93d5f7;fill-opacity:1;fill-rule:nonzero;stroke:none"
             id="path76" />
        </g>
        <g
           id="g78"
           transform="translate(1193.0015,1050.9095)">
          <path
             d="M 0,0 C -0.591,0.101 -1.14,0.146 -1.754,0.138 -2.56,0.125 -3.528,-0.596 -3.774,-1.367 -3.958,-1.953 -4.072,-2.492 -4.143,-3.087 -4.522,-6.222 -0.951,-8.49 1.655,-6.548 4.261,-4.607 3.112,-0.535 0,0"
             style="fill:#93d5f7;fill-opacity:1;fill-rule:nonzero;stroke:none"
             id="path80" />
        </g>
        <g
           id="g82"
           transform="translate(1528.9349,858.3314)">
          <path
             d="m 0,0 c -0.592,1.173 -1.228,2.164 -2.02,3.171 -4.179,5.303 -13.673,2.933 -15.079,-4.179 -1.406,-7.113 6.782,-11.352 12.843,-7.13 1.15,0.803 2.144,1.62 3.166,2.624 C 0.247,-4.192 0.769,-1.552 0,0"
             style="fill:#93d5f7;fill-opacity:1;fill-rule:nonzero;stroke:none"
             id="path84" />
        </g>
        <g
           id="g86"
           transform="translate(1649.4309,580.4464)">
          <path
             d="m 0,0 c 1.15,0.802 2.144,1.62 3.166,2.623 1.337,1.322 1.859,3.962 1.09,5.515 -0.591,1.173 -1.228,2.163 -2.02,3.17 -4.179,5.303 -13.673,2.933 -15.079,-4.179 C -14.249,0.017 -6.061,-4.223 0,0"
             style="fill:#93d5f7;fill-opacity:1;fill-rule:nonzero;stroke:none"
             id="path88" />
        </g>
        <g
           id="g90"
           transform="translate(1134.2811,501.484)">
          <path
             d="m 0,0 c -2.222,2.694 -8.266,0.706 -9.628,-3.389 -1.361,-4.096 3.418,-5.915 7.463,-3.122 0.768,0.53 1.44,1.058 2.142,1.693 0.919,0.835 1.424,2.356 1.056,3.175 C 0.747,-1.024 0.422,-0.511 0,0"
             style="fill:#93d5f7;fill-opacity:1;fill-rule:nonzero;stroke:none"
             id="path92" />
        </g>
        <g
           id="g94"
           transform="translate(1259.0742,396.0553)">
          <path
             d="m 0,0 c -2.222,2.694 -8.266,0.706 -9.628,-3.389 -1.361,-4.095 3.418,-5.914 7.463,-3.122 0.768,0.53 1.44,1.058 2.142,1.693 0.919,0.835 1.425,2.355 1.056,3.175 C 0.747,-1.024 0.422,-0.511 0,0"
             style="fill:#93d5f7;fill-opacity:1;fill-rule:nonzero;stroke:none"
             id="path96" />
        </g>
        <g
           id="g98"
           transform="translate(1547.9855,804.0517)">
          <path
             d="M 0,0 C 0.674,0.69 0.89,2.117 0.45,2.979 0.113,3.632 -0.245,4.186 -0.684,4.752 -3.001,7.735 -7.944,6.656 -8.525,2.813 -9.105,-1.03 -4.703,-3.523 -1.607,-1.359 -1.02,-0.947 -0.515,-0.524 0,0"
             style="fill:#93d5f7;fill-opacity:1;fill-rule:nonzero;stroke:none"
             id="path100" />
        </g>
        <g
           id="g102"
           transform="translate(1529.0291,757.9227)">
          <path
             d="m 0,0 c -3.418,-3.502 -0.749,-9.288 4.006,-9.35 0.903,-0.011 1.73,0.05 2.642,0.207 1.196,0.211 2.466,1.51 2.65,2.715 0.135,0.916 0.177,1.744 0.144,2.646 C 9.266,0.971 3.419,3.502 0,0"
             style="fill:#93d5f7;fill-opacity:1;fill-rule:nonzero;stroke:none"
             id="path104" />
        </g>
        <g
           id="g106"
           transform="translate(1312.7068,956.5558)">
          <path
             d="m 0,0 -1.225,0.471 -0.86,-0.317 c -1.486,-0.706 -1.491,-2.909 0.09,-3.517 1.58,-0.607 3.053,1.033 2.422,2.552 z"
             style="fill:#93d5f7;fill-opacity:1;fill-rule:nonzero;stroke:none"
             id="path108" />
        </g>
        <g
           id="g110"
           transform="translate(1446.4846,445.6737)">
          <path
             d="M 0,0 C 0.719,-0.037 1.178,0.811 0.695,1.373 0.213,1.935 -0.695,1.61 -0.768,0.894 L -0.771,0.492 -0.397,0.057 Z"
             style="fill:#93d5f7;fill-opacity:1;fill-rule:nonzero;stroke:none"
             id="path112" />
        </g>
        <g
           id="g114"
           transform="translate(1207.319,407.4078)">
          <path
             d="M 0,0 -0.004,-0.401 0.37,-0.837 0.767,-0.893 C 1.486,-0.93 1.946,-0.082 1.463,0.48 0.98,1.042 0.072,0.717 0,0"
             style="fill:#93d5f7;fill-opacity:1;fill-rule:nonzero;stroke:none"
             id="path116" />
        </g>
        <g
           id="g118"
           transform="translate(1543.5477,524.7144)">
          <path
             d="M 0,0 C 0.719,-0.037 1.178,0.811 0.695,1.373 0.213,1.935 -0.695,1.609 -0.767,0.893 L -0.771,0.492 -0.397,0.056 Z"
             style="fill:#93d5f7;fill-opacity:1;fill-rule:nonzero;stroke:none"
             id="path120" />
        </g>
        <g
           id="g122"
           transform="translate(1546.2559,536.3977)">
          <path
             d="M 0,0 C -0.152,-0.466 -0.252,-0.888 -0.312,-1.348 -0.39,-1.95 0.123,-2.516 0.757,-2.53 1.24,-2.538 1.69,-2.504 2.193,-2.426 4.843,-2.015 7.183,1.169 5.804,2.695 4.424,4.22 0.802,2.455 0,0"
             style="fill:#93d5f7;fill-opacity:1;fill-rule:nonzero;stroke:none"
             id="path124" />
        </g>
        <g
           id="g126"
           transform="translate(1513.4509,475.1524)">
          <path
             d="M 0,0 0.498,0.769 0.308,2.068 -0.389,2.663 C -1.732,3.613 -3.656,2.537 -3.411,0.863 -3.167,-0.813 -1.016,-1.294 0,0"
             style="fill:#93d5f7;fill-opacity:1;fill-rule:nonzero;stroke:none"
             id="path128" />
        </g>
        <g
           id="g130"
           transform="translate(1589.569,553.0332)">
          <path
             d="m 0,0 0.398,-0.155 0.28,0.102 C 1.162,0.174 1.167,0.891 0.654,1.091 0.141,1.29 -0.341,0.759 -0.138,0.264 Z"
             style="fill:#93d5f7;fill-opacity:1;fill-rule:nonzero;stroke:none"
             id="path132" />
        </g>
        <g
           id="g134"
           transform="translate(1229.8304,393.4386)">
          <path
             d="m 0,0 -0.297,-0.017 -0.305,-0.3 -0.022,-0.297 C -0.615,-1.15 0.038,-1.447 0.43,-1.06 0.823,-0.674 0.535,-0.017 0,0"
             style="fill:#93d5f7;fill-opacity:1;fill-rule:nonzero;stroke:none"
             id="path136" />
        </g>
        <g
           id="g138"
           transform="translate(1161.4124,430.998)">
          <path
             d="M 0,0 -1.015,0.163 C -1.466,0.19 -1.86,-0.219 -1.838,-0.69 l 0.15,-1.06 C -1.248,-3.694 1.231,-5.268 2.293,-4.168 3.355,-3.067 1.861,-0.47 0,0"
             style="fill:#93d5f7;fill-opacity:1;fill-rule:nonzero;stroke:none"
             id="path140" />
        </g>
        <g
           id="g142"
           transform="translate(1450.0363,424.2139)">
          <path
             d="M 0,0 1.115,-0.402 2.021,0.17 C 3.615,1.366 4.036,4.273 2.598,4.792 1.159,5.309 -0.599,2.884 -0.266,0.993 Z"
             style="fill:#93d5f7;fill-opacity:1;fill-rule:nonzero;stroke:none"
             id="path144" />
        </g>
        <g
           id="g146"
           transform="translate(1366.9844,392.8005)">
          <path
             d="M 0,0 1.115,-0.402 2.021,0.17 C 3.615,1.367 4.036,4.273 2.597,4.791 1.159,5.309 -0.6,2.884 -0.267,0.993 Z"
             style="fill:#93d5f7;fill-opacity:1;fill-rule:nonzero;stroke:none"
             id="path148" />
        </g>
        <g
           id="g150"
           transform="translate(1625.2506,662.0195)">
          <path
             d="M 0,0 -0.011,0.327 -0.168,0.493 -0.965,0.13 -0.144,-0.177 Z"
             style="fill:#93d5f7;fill-opacity:1;fill-rule:nonzero;stroke:none"
             id="path152" />
        </g>
        <g
           id="g154"
           transform="translate(1563.1771,584.7704)">
          <path
             d="M 0,0 0.823,-0.338 C 1.231,-0.436 1.985,-0.024 2.399,0.52 L 3.232,1.76 C 4.602,4.059 3.675,6.234 1.643,5.128 -0.39,4.021 -1.352,0.816 0,0"
             style="fill:#93d5f7;fill-opacity:1;fill-rule:nonzero;stroke:none"
             id="path156" />
        </g>
        <g
           id="g158"
           transform="translate(1594.35,652.7404)">
          <path
             d="M 0,0 C 2.41,0.172 3.322,3.182 1.587,4.764 L 0.544,5.553 C 0.034,5.868 -0.861,5.804 -1.324,5.42 L -2.245,4.491 C -3.737,2.679 -2.41,-0.171 0,0"
             style="fill:#93d5f7;fill-opacity:1;fill-rule:nonzero;stroke:none"
             id="path160" />
        </g>
        <g
           id="g162"
           transform="translate(1179.7021,462.6095)">
          <path
             d="M 0,0 -1.043,0.79 C -1.554,1.104 -2.448,1.041 -2.911,0.656 L -3.832,-0.272 C -5.324,-2.084 -3.997,-4.935 -1.587,-4.764 0.823,-4.592 1.734,-1.582 0,0"
             style="fill:#93d5f7;fill-opacity:1;fill-rule:nonzero;stroke:none"
             id="path164" />
        </g>
        <g
           id="g166"
           transform="translate(1052.3772,462.1066)">
          <path
             d="m 0,0 c -1.23,-0.266 -1.478,-1.885 -0.467,-2.573 l 0.596,-0.331 0.954,0.207 0.406,0.547 C 2.125,-1.106 1.23,0.266 0,0"
             style="fill:#93d5f7;fill-opacity:1;fill-rule:nonzero;stroke:none"
             id="path168" />
        </g>
        <g
           id="g170"
           transform="translate(1101.0037,462.1066)">
          <path
             d="m 0,0 c -1.23,-0.266 -1.478,-1.885 -0.467,-2.573 l 0.596,-0.331 0.954,0.207 0.406,0.547 C 2.125,-1.106 1.23,0.266 0,0"
             style="fill:#93d5f7;fill-opacity:1;fill-rule:nonzero;stroke:none"
             id="path172" />
        </g>
        <g
           id="g174"
           transform="translate(1372.6425,924.7534)">
          <path
             d="m 0,0 -1.225,0.47 -0.86,-0.316 c -1.486,-0.706 -1.491,-2.909 0.09,-3.517 1.58,-0.607 3.053,1.033 2.422,2.552 z"
             style="fill:#93d5f7;fill-opacity:1;fill-rule:nonzero;stroke:none"
             id="path176" />
        </g>
        <g
           id="g178"
           transform="translate(655.7757,653.6405)">
          <path
             d="M 0,0 C 61.136,-10.069 91.708,-15.891 142.368,-29.797 237.856,-56.006 302.78,-90.905 402.357,-100.966 266.105,-63.587 130.673,12.883 0,0"
             style="fill:#4093cf;fill-opacity:1;fill-rule:nonzero;stroke:none"
             id="path180" />
        </g>
        <g
           id="g182"
           transform="translate(269.94,727.6273)">
          <path
             d="M 0,0 C 39.381,-7.109 59.067,-11.173 91.645,-20.657 153.049,-38.53 194.631,-61.712 258.837,-69.198 171.218,-43.707 84.516,7.022 0,0"
             style="fill:#4093cf;fill-opacity:1;fill-rule:nonzero;stroke:none"
             id="path184" />
        </g>
        <g
           id="g186"
           transform="translate(823.7653,1683.3674)">
          <path
             d="M 0,0 C 271.883,-55.955 527.55,-165.305 717.626,-367.599 545.624,-150.286 276.858,-12.612 0,0"
             style="fill:#e1f2fc;fill-opacity:1;fill-rule:nonzero;stroke:none"
             id="path188" />
        </g>
        <g
           id="g190"
           transform="translate(1317.3446,460.0765)">
          <path
             d="M 0,0 C 79.072,12.96 155.411,71.476 173.631,151.746 134.837,80.106 72.376,34.305 0,0"
             style="fill:#e1f2fc;fill-opacity:1;fill-rule:nonzero;stroke:none"
             id="path192" />
        </g>
        <g
           id="g194"
           transform="translate(355.3617,762.2008)">
          <path
             d="M 0,0 C 61.908,2.514 93.026,3 145.452,-0.363 244.268,-6.702 314.913,-27.737 414.465,-17.434 273.468,-8.408 125.36,39.066 0,0"
             style="fill:#e1f2fc;fill-opacity:1;fill-rule:nonzero;stroke:none"
             id="path196" />
        </g>
      </g>
    </g>
  </g>
</svg>
